<?xml version="1.0" encoding="UTF-8" standalone="no"?>
<!-- Created with Inkscape (http://www.inkscape.org/) -->

<svg
   xmlns:osb="http://www.openswatchbook.org/uri/2009/osb"
   xmlns:dc="http://purl.org/dc/elements/1.1/"
   xmlns:cc="http://creativecommons.org/ns#"
   xmlns:rdf="http://www.w3.org/1999/02/22-rdf-syntax-ns#"
   xmlns:svg="http://www.w3.org/2000/svg"
   xmlns="http://www.w3.org/2000/svg"
   xmlns:sodipodi="http://sodipodi.sourceforge.net/DTD/sodipodi-0.dtd"
   xmlns:inkscape="http://www.inkscape.org/namespaces/inkscape"
   width="152.39999mm"
   height="200mm"
   viewBox="0 0 152.39999 200"
   version="1.1"
   id="svg8"
   inkscape:version="0.92.3 (3ce5693, 2018-03-11)"
   sodipodi:docname="drawing.svg">
  <defs
     id="defs2">
    <linearGradient
       id="linearGradient6014"
       osb:paint="solid">
      <stop
         style="stop-color:#000000;stop-opacity:1;"
         offset="0"
         id="stop6012" />
    </linearGradient>
  </defs>
  <sodipodi:namedview
     id="base"
     pagecolor="#ffffff"
     bordercolor="#666666"
     borderopacity="1.0"
     inkscape:pageopacity="0.0"
     inkscape:pageshadow="2"
     inkscape:zoom="0.45031268"
     inkscape:cx="-50.764419"
     inkscape:cy="416.60668"
     inkscape:document-units="mm"
     inkscape:current-layer="layer1"
     showgrid="false"
     inkscape:window-width="1280"
     inkscape:window-height="671"
     inkscape:window-x="0"
     inkscape:window-y="25"
     inkscape:window-maximized="1" />
  <metadata
     id="metadata5">
    <rdf:RDF>
      <cc:Work
         rdf:about="">
        <dc:format>image/svg+xml</dc:format>
        <dc:type
           rdf:resource="http://purl.org/dc/dcmitype/StillImage" />
        <dc:title></dc:title>
      </cc:Work>
    </rdf:RDF>
  </metadata>
  <g
     inkscape:label="Layer 1"
     inkscape:groupmode="layer"
     id="layer1"
     transform="translate(0,-97)">
    <path
       style="fill:none;fill-opacity:1;stroke-width:1.00000001;stroke-miterlimit:4;stroke-dasharray:none;stroke:#8d0000;stroke-opacity:1"
       d="M 0 0 L 0 755.90625 L 576 755.90625 L 576 0 L 0 0 z M 137.19727 17.953125 A 6.6141725 6.6141725 0 0 1 143.81055 24.566406 A 6.6141725 6.6141725 0 0 1 137.19727 31.181641 A 6.6141725 6.6141725 0 0 1 130.58203 24.566406 A 6.6141725 6.6141725 0 0 1 137.19727 17.953125 z M 173.10156 17.953125 A 27.401575 27.401575 0 0 1 200.50391 45.353516 A 27.401575 27.401575 0 0 1 173.10156 72.755859 A 27.401575 27.401575 0 0 1 145.70117 45.353516 A 27.401575 27.401575 0 0 1 173.10156 17.953125 z M 252.09375 17.953125 A 27.401575 27.401575 0 0 1 279.49609 45.353516 A 27.401575 27.401575 0 0 1 252.09375 72.755859 A 27.401575 27.401575 0 0 1 224.69336 45.353516 A 27.401575 27.401575 0 0 1 252.09375 17.953125 z M 449.38672 17.953125 A 6.6141732 6.6141732 0 0 1 456 24.566406 A 6.6141732 6.6141732 0 0 1 449.38672 31.181641 A 6.6141732 6.6141732 0 0 1 442.77148 24.566406 A 6.6141732 6.6141732 0 0 1 449.38672 17.953125 z M 333.73242 36.849609 A 12.283465 12.283465 0 0 1 346.01562 49.134766 A 12.283465 12.283465 0 0 1 333.73242 61.417969 A 12.283465 12.283465 0 0 1 321.44922 49.134766 A 12.283465 12.283465 0 0 1 333.73242 36.849609 z M 173.48047 78.425781 A 27.401575 27.401575 0 0 1 200.88281 105.82617 A 27.401575 27.401575 0 0 1 173.48047 133.22852 A 27.401575 27.401575 0 0 1 146.07812 105.82617 A 27.401575 27.401575 0 0 1 173.48047 78.425781 z M 250.20508 82.205078 A 27.401575 27.401575 0 0 1 277.60547 109.60547 A 27.401575 27.401575 0 0 1 250.20508 137.00781 A 27.401575 27.401575 0 0 1 222.80273 109.60547 A 27.401575 27.401575 0 0 1 250.20508 82.205078 z M 333.73242 99.212891 A 12.283465 12.283465 0 0 1 346.01562 111.49609 A 12.283465 12.283465 0 0 1 333.73242 123.7793 A 12.283465 12.283465 0 0 1 321.44922 111.49609 A 12.283465 12.283465 0 0 1 333.73242 99.212891 z M 173.10156 140.78711 A 27.401575 27.401575 0 0 1 200.50391 168.18945 A 27.401575 27.401575 0 0 1 173.10156 195.58984 A 27.401575 27.401575 0 0 1 145.70117 168.18945 A 27.401575 27.401575 0 0 1 173.10156 140.78711 z M 246.42578 145.70117 A 27.401575 27.401575 0 0 1 273.82617 173.10156 A 27.401575 27.401575 0 0 1 246.42578 200.50391 A 27.401575 27.401575 0 0 1 219.02344 173.10156 A 27.401575 27.401575 0 0 1 246.42578 145.70117 z M 333.73242 161.57422 A 12.283465 12.283465 0 0 1 346.01562 173.85742 A 12.283465 12.283465 0 0 1 333.73242 186.14258 A 12.283465 12.283465 0 0 1 321.44922 173.85742 A 12.283465 12.283465 0 0 1 333.73242 161.57422 z M 171.96875 210.70898 A 27.401575 27.401575 0 0 1 199.36914 238.10938 A 27.401575 27.401575 0 0 1 171.96875 265.51172 A 27.401575 27.401575 0 0 1 144.56641 238.10938 A 27.401575 27.401575 0 0 1 171.96875 210.70898 z M 246.80273 210.70898 A 27.401575 27.401575 0 0 1 274.20508 238.10938 A 27.401575 27.401575 0 0 1 246.80273 265.51172 A 27.401575 27.401575 0 0 1 219.40234 238.10938 A 27.401575 27.401575 0 0 1 246.80273 210.70898 z M 334.48828 229.60547 A 12.283465 12.283465 0 0 1 346.77148 241.89062 A 12.283465 12.283465 0 0 1 334.48828 254.17383 A 12.283465 12.283465 0 0 1 322.20508 241.89062 A 12.283465 12.283465 0 0 1 334.48828 229.60547 z M 137.19727 246.61328 A 6.6141721 6.6141721 0 0 1 143.81055 253.22852 A 6.6141721 6.6141721 0 0 1 137.19727 259.8418 A 6.6141721 6.6141721 0 0 1 130.58203 253.22852 A 6.6141721 6.6141721 0 0 1 137.19727 246.61328 z M 449.38672 248.50391 A 6.6141717 6.6141717 0 0 1 456 255.11719 A 6.6141717 6.6141717 0 0 1 449.38672 261.73242 A 6.6141717 6.6141717 0 0 1 442.77148 255.11719 A 6.6141717 6.6141717 0 0 1 449.38672 248.50391 z M 192.75586 287.24414 A 56.692893 56.692893 0 0 1 249.44922 343.9375 A 56.692893 56.692893 0 0 1 192.75586 400.63086 A 56.692893 56.692893 0 0 1 136.0625 343.9375 A 56.692893 56.692893 0 0 1 192.75586 287.24414 z M 364.72461 289.13477 A 56.692895 56.692895 0 0 1 421.41797 345.82617 A 56.692895 56.692895 0 0 1 364.72461 402.51953 A 56.692895 56.692895 0 0 1 308.03125 345.82617 A 56.692895 56.692895 0 0 1 364.72461 289.13477 z M 136.0625 419.7168 A 6.6141713 6.6141713 0 0 1 142.67773 426.33008 A 6.6141713 6.6141713 0 0 1 136.0625 432.94531 A 6.6141713 6.6141713 0 0 1 129.44922 426.33008 A 6.6141713 6.6141713 0 0 1 136.0625 419.7168 z M 447.87305 419.7168 A 6.6141716 6.6141716 0 0 1 454.48828 426.33008 A 6.6141716 6.6141716 0 0 1 447.87305 432.94531 A 6.6141716 6.6141716 0 0 1 441.25977 426.33008 A 6.6141716 6.6141716 0 0 1 447.87305 419.7168 z M 136.0625 652.91406 A 6.6141715 6.6141715 0 0 1 142.67773 659.52734 A 6.6141715 6.6141715 0 0 1 136.0625 666.14258 A 6.6141715 6.6141715 0 0 1 129.44922 659.52734 A 6.6141715 6.6141715 0 0 1 136.0625 652.91406 z M 447.87305 652.91406 A 6.614171 6.614171 0 0 1 454.48828 659.52734 A 6.614171 6.614171 0 0 1 447.87305 666.14258 A 6.614171 6.614171 0 0 1 441.25977 659.52734 A 6.614171 6.614171 0 0 1 447.87305 652.91406 z M 183.30664 673.70117 A 27.401575 27.401575 0 0 1 210.70898 701.10156 A 27.401575 27.401575 0 0 1 183.30664 728.50391 A 27.401575 27.401575 0 0 1 155.90625 701.10156 A 27.401575 27.401575 0 0 1 183.30664 673.70117 z M 355.27539 677.48047 A 27.401575 27.401575 0 0 1 382.67773 704.88281 A 27.401575 27.401575 0 0 1 355.27539 732.2832 A 27.401575 27.401575 0 0 1 327.87305 704.88281 A 27.401575 27.401575 0 0 1 355.27539 677.48047 z "
       transform="matrix(0.26458333,0,0,0.26458333,0,97)"
       id="rect6020" />
  </g>
</svg>
